
<svg width="226px" height="60px" viewBox="0 0 226 60" version="1.1" xmlns="http://www.w3.org/2000/svg" xmlns:xlink="http://www.w3.org/1999/xlink">
    <defs>
        <polygon id="path-1" points="0.332564706 0.115324324 23.816 0.115324324 23.816 16.8433243 0.332564706 16.8433243"></polygon>
        <polygon id="path-3" points="0 0.41255814 53.6718462 0.41255814 53.6718462 59.999814 0 59.999814"></polygon>
    </defs>
    <g id="Page-1" stroke="none" stroke-width="1" fill="none" fill-rule="evenodd">
        <g id="Homepage" transform="translate(-28.000000, -58.000000)">
            <g id="Page-1" transform="translate(28.000000, 58.000000)">
                <path d="M72.3142991,23.516013 L72.9624391,22.094677 L67.548923,22.094677 L66.900783,23.516013 L72.3142991,23.516013 Z M77.4314155,23.516013 C76.9314754,24.6118985 76.1149692,25.5476269 74.9837727,26.3227313 C73.8525762,27.0978356 72.7368563,27.4849209 71.636144,27.4849209 L65.0904935,27.4849209 L62.1175854,34 L57,34 L64.7556368,17 L76.4207487,17 C77.521461,17 78.2830958,17.3875522 78.7075289,18.1612558 C79.1319621,18.9358932 79.0944431,19.8702208 78.5949721,20.9656394 L77.4314155,23.516013 Z" id="Fill-1" fill="#231F20"></path>
                <path d="M89.3140448,23.516013 L89.9621939,22.094677 L84.5490709,22.094677 L83.9004528,23.516013 L89.3140448,23.516013 Z M89.6484372,34 L84.5307801,34 L87.5037299,27.4849209 L82.0901379,27.4849209 L79.1176571,34 L74,34 L81.7557456,17 L93.4210209,17 C94.5212797,17 95.2833941,17.3875522 95.7073643,18.1612558 C96.1318034,18.9358932 96.0947529,19.8702208 95.5948058,20.9656394 L94.4317019,23.516013 C94.1643756,24.1015436 93.4932459,24.7636508 92.4192508,25.4995331 C92.8207093,26.2377499 92.8882443,26.8993902 92.620918,27.4849209 L89.6484372,34 Z" id="Fill-3" fill="#231F20"></path>
                <path d="M103.119627,28.9057899 L106.137293,22.094677 L100.880289,22.094677 L97.8626235,28.9057899 L103.119627,28.9057899 Z M107.589652,30.0334267 C107.104166,31.1297792 106.311722,32.0655076 105.213685,32.8387442 C104.115648,33.6129147 103.032185,34 101.964207,34 L94.5042983,34 C93.4358644,34 92.6953387,33.6129147 92.2836319,32.8387442 C91.8719251,32.0655076 91.9083593,31.1297792 92.39339,30.0334267 L96.4107194,20.9670402 C96.8957501,19.8706878 97.6877391,18.9358932 98.7857758,18.1612558 C99.8842678,17.3875522 100.967731,17 102.036165,17 L109.495618,17 C110.564052,17 111.303667,17.3875522 111.715829,18.1612558 C112.127991,18.9358932 112.092012,19.8706878 111.606526,20.9670402 L107.589652,30.0334267 Z" id="Fill-5" fill="#231F20"></path>
                <path d="M124.155862,30.0343606 C123.665471,31.1297792 122.863976,32.0655076 121.752299,32.8387442 C120.640623,33.6129147 119.545077,34 118.46382,34 L107,34 L109.28373,28.9057899 L119.632647,28.9057899 L120.270525,27.4849209 L113.836904,27.4849209 C112.755646,27.4849209 112.005771,27.0978356 111.588662,26.3227313 C111.172014,25.5476269 111.208885,24.6118985 111.700198,23.516013 L112.844138,20.9656394 C113.334529,19.8702208 114.136024,18.9358932 115.247701,18.1612558 C116.358455,17.3875522 117.454923,17 118.537102,17 L130,17 L127.715348,22.094677 L117.366892,22.094677 L116.729475,23.516013 L123.163096,23.5183476 C124.242971,23.5183476 124.992846,23.9049659 125.409955,24.6796034 C125.827525,25.453307 125.790654,26.3890354 125.299802,27.4849209 L124.155862,30.0343606 Z" id="Fill-7" fill="#231F20"></path>
                <polygon id="Fill-9" fill="#231F20" points="137.753662 34 124 34 131.496104 17 136.443941 17 131.192361 28.9057899 140 28.9057899"></polygon>
                <polygon id="Fill-11" fill="#231F20" points="154.239573 34 140 34 147.761365 17 162 17 159.674453 22.094677 150.557184 22.094677 149.907627 23.516013 159.025365 23.516013 157.214208 27.4849209 148.096 27.4849209 147.447851 28.9057899 156.566059 28.9057899"></polygon>
                <polygon id="Fill-13" fill="#231F20" points="169.238966 34 155 34 162.761973 17 177 17 174.674553 22.094677 165.556734 22.094677 164.907673 23.516013 174.025492 23.516013 172.213474 27.4849209 163.096593 27.4849209 162.447533 28.9057899 171.565352 28.9057899"></polygon>
                <polygon id="Fill-15" fill="#231F20" points="193 17 181.407201 34 174 34 177.361771 17 182.305633 17 179.955332 28.8801088 188.057947 17"></polygon>
                <polygon id="Fill-17" fill="#231F20" points="201.238966 34 187 34 194.761034 17 209 17 206.674553 22.094677 197.557672 22.094677 196.907673 23.516013 206.024554 23.516013 204.213474 27.4849209 195.096593 27.4849209 194.447533 28.9057899 203.565352 28.9057899"></polygon>
                <g id="Group-21" transform="translate(202.000000, 17.000000)">
                    <mask id="mask-2" fill="white">
                        <use xlink:href="#path-1"></use>
                    </mask>
                    <g id="Clip-20"></g>
                    <path d="M17.8492706,12.9411351 C17.3476235,14.019027 16.5292706,14.9397838 15.3951529,15.7006486 C14.2600941,16.4624324 13.1405647,16.8433243 12.0375059,16.8433243 L0.332564706,16.8433243 L2.66432941,11.8306216 L13.2313882,11.8306216 L13.8812706,10.4324865 L7.31327059,10.4324865 C6.20974118,10.4324865 5.44409412,10.0515946 5.01727059,9.28889189 C4.59185882,8.52618919 4.62950588,7.60543243 5.13162353,6.52708108 L6.29962353,4.01751351 C6.80032941,2.93962162 7.61868235,2.02024324 8.7528,1.258 C9.88785882,0.496675676 11.0073882,0.115324324 12.1123294,0.115324324 L23.8163294,0.115324324 L21.4845647,5.12848649 L10.9175059,5.12848649 L10.2676235,6.52708108 L16.8346824,6.52937838 C17.9382118,6.52937838 18.7038588,6.90981081 19.1297412,7.67205405 C19.5560941,8.43337838 19.5175059,9.35413514 19.0163294,10.4324865 L17.8492706,12.9411351 Z" id="Fill-19" fill="#231F20" mask="url(#mask-2)"></path>
                </g>
                <path d="M80,42 L80.6843927,38 L81.692102,38 L81.3196979,39.6442738 C81.2111391,40.1241203 81.0813405,40.6402218 80.9784456,41.0501173 L80.9911894,41.0501173 C81.2422907,40.6099382 81.5429515,40.1300917 81.8568282,39.6314779 L82.8909692,38 L83.8925425,38 L83.5210824,39.6847942 C83.4172435,40.1535509 83.3072687,40.5813606 83.1826621,41.0262316 L83.1944619,41.0262316 C83.4432033,40.5813606 83.7315922,40.1130305 84.0199811,39.6314779 L85.0418502,38 L86,38 L83.2511013,42 L82.2311202,42 L82.5992763,40.2780977 C82.6875393,39.8741736 82.7758024,39.5013862 82.9183449,39.0437193 L82.905129,39.0437193 C82.6426998,39.4945617 82.4161422,39.8741736 82.1452171,40.2844956 L81.032725,42 L80,42 Z" id="Fill-22" fill="#BF311A"></path>
                <polygon id="Fill-24" fill="#BF311A" points="90.0017817 40.3083813 88.5545657 40.3083813 88.17951 41.2578375 89.7951002 41.2578375 89.5024499 42 87 42 88.57951 38 91 38 90.7069042 38.7421625 89.1732739 38.7421625 88.8449889 39.5721902 90.2917595 39.5721902"></polygon>
                <polygon id="Fill-26" fill="#BF311A" points="95 38 94.4075354 40 94 40 94.3930176 38"></polygon>
                <path d="M98,42 L98.3245931,38 L99.3128391,38 L99.1207052,39.6916187 C99.0641953,40.1714651 99.0076854,40.6223075 98.9028029,41.1209213 L98.9199819,41.1209213 C99.2138336,40.6402218 99.5280289,40.1663468 99.8471971,39.7091064 L101.041591,38 L102,38 L99.0537975,42 L98,42 Z" id="Fill-28" fill="#BF311A"></path>
                <polygon id="Fill-30" fill="#BF311A" points="106.001225 40.3083813 104.554293 40.3083813 104.179196 41.2578375 105.794966 41.2578375 105.502283 42 103 42 104.57924 38 107 38 106.707317 38.7421625 105.17307 38.7421625 104.844749 39.5721902 106.291235 39.5721902"></polygon>
                <path d="M115.761754,41.7789386 C115.470673,41.8717092 114.934865,42 114.448337,42 C113.776385,42 113.357094,41.8194735 113.147866,41.4772252 C112.943649,41.1337234 112.951166,40.6213957 113.169164,40.0468032 C113.666133,38.744672 114.838395,38 116.047407,38 C116.523495,38 116.852162,38.0990389 117,38.185959 L116.554399,38.9005433 C116.389021,38.802758 116.16977,38.7325533 115.76593,38.7325533 C115.071009,38.7325533 114.381517,39.1516924 114.062038,39.9995821 C113.753416,40.8136231 114.057026,41.2841621 114.741507,41.2841621 C114.926513,41.2841621 115.088132,41.2620142 115.165392,41.2323443 L115.476937,40.4061847 L114.90772,40.4061847 L115.169568,39.71542 L116.541452,39.71542 L115.761754,41.7789386 Z" id="Fill-32" fill="#BF311A"></path>
                <path d="M120.496323,41.3041503 C121.069541,41.3041503 121.615119,40.7458187 121.911508,39.987611 C122.181533,39.2934132 122.097762,38.6954367 121.512212,38.6954367 C120.927513,38.6954367 120.370879,39.2822631 120.088522,40.0057815 C119.804465,40.7346686 119.922255,41.3041503 120.49037,41.3041503 L120.496323,41.3041503 Z M120.181649,42 C119.072634,42 118.754557,41.13153 119.184046,40.0280818 C119.636071,38.867644 120.69831,38 121.799246,38 C122.952061,38 123.234417,38.8907702 122.818537,39.9599422 C122.321861,41.2347718 121.28386,42 120.187177,42 L120.181649,42 Z" id="Fill-34" fill="#BF311A"></path>
                <polygon id="Fill-36" fill="#BF311A" points="127.446444 38.7596502 126.245689 38.7596502 126.585022 38 130 38 129.660667 38.7596502 128.448332 38.7596502 127.001888 42 126 42"></polygon>
                <path d="M135,42 L135.688381,40.3612711 L135.358167,38 L136.44451,38 L136.462987,38.9609725 C136.471041,39.2527191 136.473884,39.4651312 136.463935,39.7265942 L136.475779,39.7265942 C136.672865,39.477074 136.869951,39.2458946 137.113467,38.9609725 L137.939713,38 L139,38 L136.644439,40.3314139 L135.94374,42 L135,42 Z" id="Fill-38" fill="#BF311A"></path>
                <path d="M142.49681,41.3041503 C143.070002,41.3041503 143.615554,40.7458187 143.91108,39.987611 C144.181943,39.2934132 144.097325,38.6954367 143.512652,38.6954367 C142.927979,38.6954367 142.371371,39.2822631 142.089027,40.0057815 C141.805833,40.7346686 141.922768,41.3041503 142.490857,41.3041503 L142.49681,41.3041503 Z M142.181299,42 C141.074035,42 140.754273,41.13153 141.183741,40.0280818 C141.635746,38.867644 142.697937,38 143.799673,38 C144.952435,38 145.233928,38.8907702 144.818917,39.9599422 C144.322264,41.2347718 143.284311,42 142.187677,42 L142.181299,42 Z" id="Fill-40" fill="#BF311A"></path>
                <path d="M149.848252,38 L149.007126,40.2587347 C148.754004,40.9423985 148.868383,41.287378 149.284611,41.287378 C149.717768,41.287378 150.078251,40.9600252 150.337155,40.2587347 L151.178281,38 L152,38 L151.179107,40.2071136 C150.726542,41.4216766 149.944051,42 148.992674,42 C148.073917,42 147.744817,41.4447592 148.209357,40.1945231 L149.025708,38 L149.848252,38 Z" id="Fill-42" fill="#BF311A"></path>
                <path d="M160.482962,41.8338513 C160.297113,41.9088461 159.892978,42 159.428355,42 C158.09103,42 157.738179,41.1584835 158.180886,40.0513777 C158.709066,38.7325461 159.943824,38 161.114586,38 C161.56869,38 161.875954,38.0923969 162,38.1673918 L161.536692,38.864305 C161.395552,38.7897245 161.17639,38.720116 160.860359,38.720116 C160.171314,38.720116 159.463421,39.1410814 159.117584,40.0066294 C158.809442,40.7781231 159.071998,41.2686969 159.846954,41.2686969 C160.1174,41.2686969 160.424665,41.2160762 160.632869,41.1410814 L160.482962,41.8338513 Z" id="Fill-44" fill="#BF311A"></path>
                <path d="M164.497065,41.3041503 C165.070179,41.3041503 165.615658,40.7458187 165.910292,39.987611 C166.181119,39.2934132 166.097362,38.6954367 165.512769,38.6954367 C164.927326,38.6954367 164.370793,39.2822631 164.089338,40.0057815 C163.805332,40.7346686 163.923101,41.3041503 164.491113,41.3041503 L164.497065,41.3041503 Z M164.181598,42 C163.073634,42 162.754765,41.13153 163.183325,40.0280818 C163.635269,38.867644 164.698165,38 165.800602,38 C166.952356,38 167.234662,38.8907702 166.818006,39.9599422 C166.322271,41.2347718 165.284459,42 164.187125,42 L164.181598,42 Z" id="Fill-46" fill="#BF311A"></path>
                <path d="M171,42 L171.324972,38 L172.312542,38 L172.120452,39.6916187 C172.064407,40.1714651 172.00791,40.6223075 171.903051,41.1209213 L171.920678,41.1209213 C172.214915,40.6402218 172.528136,40.1663468 172.847684,39.7091064 L174.041356,38 L175,38 L172.054915,42 L171,42 Z" id="Fill-48" fill="#BF311A"></path>
                <polygon id="Fill-50" fill="#BF311A" points="179.000223 40.3083813 177.554021 40.3083813 177.177991 41.2578375 178.794832 41.2578375 178.501671 42 176 42 177.579416 38 180 38 179.706839 38.7421625 178.172867 38.7421625 177.844509 39.5721902 179.291602 39.5721902"></polygon>
                <path d="M183.735765,39.7904318 L184.080634,39.7904318 C184.518199,39.7904318 184.863946,39.5664691 185.001455,39.219729 C185.141159,38.8598645 184.973777,38.6714649 184.570479,38.6714649 C184.358725,38.6714649 184.233518,38.6833192 184.163226,38.7011008 L183.735765,39.7904318 Z M183.534116,38.0884843 C183.836809,38.0347163 184.265149,38 184.736982,38 C185.312056,38 185.680209,38.0884843 185.866481,38.3175275 C186.028592,38.5067739 186.045725,38.7836579 185.903385,39.1494496 C185.706568,39.6490262 185.219359,39.996613 184.836708,40.1198137 L184.829679,40.1375953 C185.05637,40.2497883 185.104256,40.5088908 185.059885,40.8746825 C185.002333,41.3276884 184.914029,41.8458933 184.928527,42 L184.03099,42 C184.020446,41.8806097 184.046366,41.5635055 184.128959,41.0740898 C184.216384,40.5740898 184.099524,40.4445385 183.73928,40.4386113 L183.481836,40.4386113 L182.868981,42 L182,42 L183.534116,38.0884843 Z" id="Fill-52" fill="#BF311A"></path>
                <polygon id="Fill-54" fill="#BF311A" points="191.002005 40.3083813 189.554912 40.3083813 189.179773 41.2578375 190.795723 41.2578375 190.503453 42 188 42 189.579416 38 192 38 191.70773 38.7421625 190.173758 38.7421625 189.8454 39.5721902 191.292493 39.5721902"></polygon>
                <path d="M194.284386,41.2875851 C194.359997,41.3060241 194.502762,41.3060241 194.620655,41.3060241 C195.522014,41.3123101 196.313936,40.8685175 196.735764,39.9306443 C197.101878,39.1143007 196.76163,38.6818229 195.902057,38.6818229 C195.687163,38.6818229 195.529973,38.6994238 195.437449,38.7166056 L194.284386,41.2875851 Z M194.729594,38.0880042 C195.120083,38.0297538 195.608568,38 196.104017,38 C196.944688,38 197.428198,38.1403876 197.719697,38.4203248 C198.03955,38.7233106 198.112176,39.2010477 197.798292,39.9008905 C197.460532,40.6531168 196.921308,41.1719225 196.360695,41.4929282 C195.743871,41.8369827 194.959411,42 194.099837,42 C193.584988,42 193.228324,41.9702462 193,41.9417496 L194.729594,38.0880042 Z" id="Fill-56" fill="#BF311A"></path>
                <g id="Group-60">
                    <mask id="mask-4" fill="white">
                        <use xlink:href="#path-3"></use>
                    </mask>
                    <g id="Clip-59"></g>
                    <path d="M4.72984615,34.211907 L4.72984615,10.4142326 C17.0893846,9.94446512 23.6524615,6.09330233 23.928,5.87423256 L25.7247692,0.412372093 C25.7104615,0.423534884 25.1007692,0.702604651 24.0313846,1.12493023 C20.3838462,2.5667907 11.3358462,5.69469767 1.89876923,5.69469767 L0,5.69469767 L0.00276923077,34.4016744 C0.0332307692,34.9579535 2.43230769,49.7626047 24.0313846,59.999814 L24.0313846,54.8346977 C5.63215385,45.7109767 4.80692308,34.9379535 4.72984615,34.211907 Z M51.7726154,5.69469767 C42.3355385,5.69469767 33.288,2.5667907 29.6404615,1.12493023 C28.5706154,0.702604651 27.9609231,0.423534884 27.9470769,0.412372093 L29.7438462,5.87423256 C30.0189231,6.09330233 36.582,9.94446512 48.942,10.4142326 L48.942,34.211907 C48.8649231,34.9379535 48.0396923,45.7109767 29.6404615,54.8346977 L29.6404615,59.999814 C51.2390769,49.7626047 53.6381538,34.9579535 53.6686154,34.4016744 L53.6718462,5.69469767 L51.7726154,5.69469767 Z M38.2730769,41.1277209 C34.626,21.9658605 48.8413846,13.8291163 48.8413846,13.8291163 C41.8093846,14.0914419 38.1627692,17.504 38.1627692,17.504 L41.5015385,17.136093 C34.2087692,22.9100465 34.1058462,34.4142326 34.1058462,34.4142326 L28.0453846,32.379814 L27.8543077,12.648186 L31.2401538,14.2226047 C31.2401538,14.2226047 28.026,6.57655814 26.8356923,2.74632558 C25.6458462,6.57655814 22.4312308,14.2226047 22.4312308,14.2226047 L25.8175385,12.648186 L25.626,32.379814 L19.566,34.4142326 C19.566,34.4142326 19.4630769,22.9100465 12.1698462,17.136093 L15.5086154,17.504 C15.5086154,17.504 11.8624615,14.0914419 4.83,13.8291163 C4.83,13.8291163 19.0453846,21.9658605 15.3987692,41.1277209 L25.5867692,37.0202791 L25.3010769,59.999814 L28.3707692,59.999814 L28.0846154,37.0202791 L38.2730769,41.1277209 Z" id="Fill-58" fill="#BF311A" mask="url(#mask-4)"></path>
                </g>
            </g>
        </g>
    </g>
</svg>