<svg xmlns="http://www.w3.org/2000/svg" xmlns:xlink="http://www.w3.org/1999/xlink" viewBox="0 0 53.672 59.587">
  <defs>
    <style>
      .cls-1 {
        fill: #fff;
      }

      .cls-2 {
        fill: none;
      }

      .cls-3 {
        clip-path: url(#clip-path);
      }
    </style>
    <clipPath id="clip-path">
      <path id="Clip_59" data-name="Clip 59" class="cls-1" d="M0,0H53.672V59.587H0Z" transform="translate(0 0.413)"/>
    </clipPath>
  </defs>
  <g id="Group_60" data-name="Group 60" transform="translate(0 -0.413)">
    <path id="Clip_59-2" data-name="Clip 59" class="cls-2" d="M0,0H53.672V59.587H0Z" transform="translate(0 0.413)"/>
    <g id="Group_60-2" data-name="Group 60" class="cls-3">
      <path id="Fill_58" data-name="Fill 58" class="cls-1" d="M29.641,59.587V54.422c7.584-3.761,13.1-8.23,16.408-13.285a16.922,16.922,0,0,0,2.89-7.3l0-.039V10A52.308,52.308,0,0,1,34.811,7.637a23.228,23.228,0,0,1-5.067-2.175L27.947,0c.014.011.642.3,1.694.713,3.475,1.374,12.587,4.569,22.132,4.569h1.9l0,28.707c0,.034-.46,3.87-3.927,9.169a39.775,39.775,0,0,1-7.24,8.188,56.311,56.311,0,0,1-12.86,8.239Zm-1.27,0H25.3l.286-22.98L15.4,40.715c1.884-9.9-1.09-16.794-3.917-20.835A23.48,23.48,0,0,0,4.83,13.416a19.648,19.648,0,0,1,7.976,1.936,12.275,12.275,0,0,1,2.7,1.739l-3.339-.368A16.7,16.7,0,0,1,16.4,21.859a24.859,24.859,0,0,1,2.2,5.669A29.866,29.866,0,0,1,19.566,34l6.06-2.035.192-19.732-3.386,1.575c.026-.064,3.231-7.7,4.4-11.477,1.177,3.785,4.372,11.4,4.4,11.477l-3.386-1.575.192,19.732L34.105,34v-.011a30.018,30.018,0,0,1,.964-6.464,24.863,24.863,0,0,1,2.2-5.669A16.7,16.7,0,0,1,41.5,16.724l-3.339.368s0,0,.008-.009a12.631,12.631,0,0,1,2.695-1.73,19.65,19.65,0,0,1,7.976-1.936,23.3,23.3,0,0,0-6.652,6.464c-2.826,4.041-5.8,10.937-3.916,20.835L28.084,36.608l.286,22.979Zm-4.339,0h0a56.338,56.338,0,0,1-12.861-8.239,39.775,39.775,0,0,1-7.24-8.188C.463,37.859,0,34.024,0,33.989L0,5.282H1.9c9.546,0,18.658-3.2,22.133-4.569C25.1.291,25.71.011,25.725,0l-1.8,5.462A23.356,23.356,0,0,1,18.86,7.637,52.328,52.328,0,0,1,4.73,10V33.8l0,.039a16.917,16.917,0,0,0,2.891,7.3c3.3,5.054,8.822,9.524,16.408,13.285v5.165Z" transform="translate(0 0.412)"/>
    </g>
  </g>
</svg>
